<svg xmlns="http://www.w3.org/2000/svg" viewBox="0 0 224 256"><defs><style>.cls-1{fill:#ffac07;}.cls-2{fill:#ffc107;}</style></defs><title>Ресурс 8</title><g id="Слой_2" data-name="Слой 2"><g id="Слой_5" data-name="Слой 5"><polygon class="cls-1" points="0 192 112 256 112 224 0 160 0 192"/><polygon class="cls-2" points="224 192 224 160 112 224 112 256 224 192"/><polygon class="cls-1" points="0 128 112 192 112 160 0 96 0 128"/><polygon class="cls-2" points="224 128 224 96 112 160 112 192 224 128"/></g><g id="Слой_8" data-name="Слой 8"><path class="cls-2" d="M112,0,0,64,28,80,56,64l56,32L84,112l28,16L224,64ZM84,48l28-16,56,32L140,80Z"/></g></g></svg>