<svg xmlns="http://www.w3.org/2000/svg" viewBox="0 0 110 110"><defs><style>.cls-1{fill:#dd2b1c;}.cls-1,.cls-2,.cls-3{fill-rule:evenodd;}.cls-2{fill:#fff;}.cls-3{fill:#fbe116;}</style></defs><g id="Слой_2" data-name="Слой 2"><g id="Слой_1-2" data-name="Слой 1"><path class="cls-1" d="M57.36.05A55,55,0,1,1,.05,52.65,55,55,0,0,1,57.36.05Z"/><path class="cls-2" d="M95.35,48.74a8.09,8.09,0,0,0-7,4.67l-.91-3.29-3.79.35,2.63,28.92,5.32-.49L89.94,61.07c-.39-4.33,1.7-6.91,5.32-7.23a8.92,8.92,0,0,1,3.63.33l-.48-5.27A8.29,8.29,0,0,0,95.35,48.74Z"/><path class="cls-2" d="M74.76,87.05c-1.3,2.9-3,3.92-6.14,3.07-2.82-.77-4-3-3-6.8l.58-2.12,14.2,3.86,1.69-6.22c1.81-6.65-.94-11.45-7-13.09s-10.6,1.18-12.4,7.82l-2.28,8.35c-1.82,6.7.81,11.53,6.65,13.12,6.07,1.64,10.66-.76,12.76-6.59Zm-.83-16.44c2.92.79,4.16,3,3.12,6.79l-.65,2.39-9.09-2.48L68,74.92C69,71.09,71.11,69.84,73.93,70.61Z"/><polygon class="cls-2" points="54.17 62.39 77.72 62.8 80.83 61.15 72.75 45.91 68.42 48.22 73.35 57.51 49.85 57.07 46.69 58.75 55.42 75.2 59.75 72.9 54.17 62.39"/><path class="cls-2" d="M50.75,84.46c.68,3.11-.07,4.94-3.1,6.13-2.72,1.07-5,0-6.42-3.68l-.81-2,13.69-5.39-2.36-6c-2.53-6.41-7.6-8.62-13.39-6.34s-7.8,7.28-5.27,13.69l3.16,8c2.55,6.46,7.54,8.77,13.18,6.54,5.84-2.3,8.09-7,6.29-12.9ZM40.25,71.78c2.82-1.11,5.1-.12,6.56,3.58l.91,2.3L39,81.11,38,78.81C36.59,75.11,37.53,72.85,40.25,71.78Z"/><path class="cls-2" d="M39.09,57.26a8.13,8.13,0,0,0-8,2.75l0-3.41L27.29,56,22.55,84.63l5.27.87,2.93-17.67c.71-4.29,3.38-6.25,7-5.66a9.14,9.14,0,0,1,3.43,1.24L42,58.19A8.23,8.23,0,0,0,39.09,57.26Z"/><path class="cls-2" d="M26.09,34.62l1.71-.06-.17-4.84-1.71.06c-6.72.24-9.6,4.36-9.39,10.37l.06,1.59-4.24.15.17,4.85,4.24-.15.86,24.17,5.28-.19L22.05,46.4l5.61-.2-.17-4.84-5.61.2L21.82,40C21.69,36.32,23.07,34.73,26.09,34.62Z"/><path class="cls-3" d="M70.45,13.88c-5.77-.89-10,1.92-11.12,7.38l5.28.81a4.07,4.07,0,0,1,5-3.14c2.88.45,3.84,2.55,3.32,5.92l-.31,2-4.19-.65c-6.32-1-10.87,1.39-11.77,7.27-.84,5.39,2.16,9.42,7.45,10.24A7.11,7.11,0,0,0,71,41.34l0,2.72,4.3.67,2.94-19.06C79.18,19.08,76.6,14.83,70.45,13.88Zm.81,21.48a4.4,4.4,0,0,1-5.39,3.86c-2.88-.45-4.33-2.29-3.93-4.9.44-2.83,2.52-4,5.73-3.53l4.19.65Z"/><path class="cls-3" d="M47.18,15.76l1.17,15c.27,3.4,1,9.15,1.78,12.9l-.15.13c-1.12-2.24-2.82-5.7-4.18-8.19L35.43,16.68l-5.55.43,3,38.45,5.49-.43L37.22,40.3c-.29-3.62-1-9.37-1.7-13.19l.16-.12c1.13,2.4,3,6.29,4.41,9.05l10,18.18,5.55-.43-3-38.46Z"/><path class="cls-2" d="M87.55,31.45a7.37,7.37,0,1,1-7.37,7.36A7.35,7.35,0,0,1,87.55,31.45Zm0-1.18A8.55,8.55,0,1,1,79,38.81,8.54,8.54,0,0,1,87.55,30.27Z"/><path class="cls-2" d="M85.31,37.81h1.37a7.55,7.55,0,0,0,1.68-.11,1,1,0,0,0,.52-.39,1.2,1.2,0,0,0,.19-.7,1.08,1.08,0,0,0-.25-.75,1,1,0,0,0-.7-.36,11.44,11.44,0,0,0-1.36,0H85.31Zm-1.88,5.33V33.9h3.93a7,7,0,0,1,2.16.25,2.11,2.11,0,0,1,1.07.89A2.64,2.64,0,0,1,91,36.49a2.51,2.51,0,0,1-.61,1.72,2.89,2.89,0,0,1-1.82.85,4.5,4.5,0,0,1,1,.78,11,11,0,0,1,1.06,1.5l1.12,1.8H89.51l-1.33-2a12.62,12.62,0,0,0-1-1.36,1.36,1.36,0,0,0-.56-.38,3.1,3.1,0,0,0-.95-.11h-.37v3.86Z"/></g></g></svg>