<svg xmlns="http://www.w3.org/2000/svg" viewBox="0 0 224 256"><defs><style>.cls-1{fill:#ffac07;}.cls-2{fill:#ffc107;}</style></defs><title>Ресурс 5</title><g id="Слой_2" data-name="Слой 2"><g id="Слой_5" data-name="Слой 5"><polygon class="cls-1" points="0 192 112 256 112 224 0 160 0 192"/><polygon class="cls-2" points="112 32 196 80 224 64 112 0 112 32"/><polygon class="cls-2" points="112 96 140 112 168 96 112 64 112 96"/><polygon class="cls-1" points="28 48 112 96 112 64 56 32 28 48"/><polygon class="cls-2" points="224 192 224 160 112 224 112 256 224 192"/><polygon class="cls-1" points="0 128 112 192 112 160 0 96 0 128"/><polygon class="cls-2" points="224 128 224 96 112 160 112 192 224 128"/><polygon class="cls-2" points="224 64 196 48 112 96 112 128 224 64"/><polygon class="cls-1" points="112 32 112 0 0 64 28 80 112 32"/><polygon class="cls-1" points="84 112 112 96 112 128 84 112"/></g></g></svg>