<?xml version="1.0" standalone="no"?>
<!DOCTYPE svg PUBLIC "-//W3C//DTD SVG 20010904//EN"
 "http://www.w3.org/TR/2001/REC-SVG-20010904/DTD/svg10.dtd">
<svg version="1.0" xmlns="http://www.w3.org/2000/svg"
 width="1024.000000pt" height="1024.000000pt" viewBox="0 0 1024.000000 1024.000000"
 preserveAspectRatio="xMidYMid meet">
<metadata>
Created by potrace 1.11, written by Peter Selinger 2001-2013
</metadata>
<g transform="translate(0.000000,1024.000000) scale(0.100000,-0.100000)"
fill="#000000" stroke="none">
<path d="M5081 10218 c-146 -85 -311 -178 -317 -178 -4 0 -15 -6 -23 -14 -9
-7 -36 -25 -61 -38 -54 -30 -75 -42 -260 -148 -80 -46 -167 -95 -195 -109 -27
-14 -52 -29 -55 -32 -3 -3 -12 -9 -20 -13 -8 -4 -24 -12 -35 -19 -11 -7 -78
-46 -150 -87 -71 -41 -143 -83 -160 -93 -16 -10 -38 -20 -47 -23 -10 -4 -18
-11 -18 -16 0 -5 -4 -7 -9 -3 -5 3 -16 -2 -24 -10 -9 -8 -18 -15 -21 -15 -4 0
-23 -11 -44 -23 -42 -27 -118 -70 -177 -101 -22 -12 -42 -24 -45 -27 -3 -3 -9
-8 -15 -10 -27 -11 -150 -84 -153 -91 -2 -4 -10 -8 -18 -8 -8 0 -20 -5 -27
-10 -11 -10 -89 -55 -227 -132 -30 -17 -97 -55 -147 -85 -51 -30 -95 -53 -99
-53 -4 1 -10 -2 -13 -7 -3 -4 -15 -13 -26 -19 -85 -46 -149 -83 -203 -116 -34
-21 -65 -38 -69 -38 -4 0 -23 -11 -42 -23 -31 -21 -89 -54 -251 -145 -19 -10
-57 -32 -85 -49 -27 -16 -57 -32 -65 -36 -8 -5 -24 -13 -35 -20 -27 -16 -179
-104 -235 -135 -25 -14 -63 -36 -85 -48 -22 -13 -58 -33 -80 -45 -22 -12 -43
-27 -47 -33 -4 -6 -8 -8 -8 -4 0 4 -41 -17 -90 -47 -50 -30 -93 -55 -96 -55
-2 0 -38 -20 -78 -45 -41 -25 -77 -45 -79 -45 -3 0 -35 -18 -71 -40 -36 -22
-68 -40 -71 -40 -2 0 -34 -18 -70 -40 -36 -22 -67 -40 -70 -40 -3 0 -28 -15
-57 -32 -29 -18 -69 -41 -88 -51 -19 -10 -44 -25 -54 -32 -20 -15 -20 -15 0
-30 10 -8 25 -15 32 -15 6 0 12 -4 12 -10 0 -5 4 -10 9 -10 6 0 36 -15 68 -34
32 -19 62 -34 67 -34 5 0 12 -4 15 -9 3 -5 21 -17 38 -26 44 -22 81 -44 118
-67 17 -11 46 -27 65 -37 19 -9 59 -32 87 -50 29 -18 63 -38 75 -43 13 -6 30
-14 38 -20 23 -15 171 -100 174 -100 2 0 63 -35 137 -78 74 -43 142 -81 151
-85 10 -3 34 6 60 23 24 16 46 30 50 30 4 0 37 18 73 40 36 22 69 40 74 40 5
0 11 4 13 9 2 5 10 11 18 13 8 2 17 5 20 9 3 3 32 20 65 39 33 18 74 41 91 51
17 9 42 23 55 31 13 7 26 15 29 18 3 3 19 12 35 20 39 19 149 83 155 90 3 3
21 13 40 22 41 20 113 61 120 68 3 3 16 11 30 17 14 7 48 26 75 42 28 16 67
39 87 50 l37 20 43 -23 c51 -28 112 -62 153 -87 17 -10 46 -27 65 -37 80 -43
105 -57 110 -63 3 -3 12 -9 20 -12 8 -4 29 -15 45 -25 17 -10 59 -35 95 -54
76 -42 218 -124 240 -139 8 -5 27 -15 43 -22 15 -6 27 -15 27 -19 0 -4 5 -8
11 -8 7 0 35 -14 63 -32 28 -17 74 -43 101 -58 28 -15 79 -44 115 -65 36 -21
87 -50 115 -64 27 -14 56 -32 63 -39 8 -7 28 -19 45 -27 18 -8 50 -26 72 -39
22 -14 54 -32 70 -40 43 -21 136 -75 165 -96 14 -9 35 -21 48 -24 12 -4 22
-12 22 -18 0 -6 3 -8 7 -5 3 4 11 3 17 -2 14 -12 254 -151 260 -151 3 0 40
-22 83 -48 43 -26 92 -54 110 -61 34 -14 32 -22 -12 -47 -11 -6 -84 -48 -162
-92 -78 -45 -145 -82 -149 -82 -4 0 -15 -6 -23 -14 -9 -7 -36 -25 -61 -38 -73
-40 -121 -68 -195 -111 -38 -22 -72 -41 -75 -41 -3 -1 -52 -29 -110 -63 -58
-35 -111 -63 -117 -63 -7 0 -13 -3 -13 -8 0 -4 -17 -16 -37 -27 -60 -30 -122
-69 -123 -77 0 -3 14 -12 30 -20 17 -7 30 -16 30 -20 0 -5 4 -8 9 -8 9 0 165
-86 201 -110 8 -6 29 -17 45 -25 17 -9 37 -20 45 -25 47 -31 172 -100 180
-100 6 0 10 -4 10 -8 0 -4 12 -13 28 -19 29 -13 104 -55 112 -64 3 -3 21 -13
40 -23 46 -24 82 -44 158 -89 35 -20 67 -37 73 -37 5 0 9 -4 9 -9 0 -5 8 -11
18 -14 9 -3 41 -20 70 -37 l54 -30 85 50 c47 27 87 50 89 50 3 0 29 15 59 34
29 19 56 32 59 29 3 -4 6 -2 6 4 0 6 8 13 18 16 9 4 40 20 67 37 28 17 59 35
70 40 11 6 34 18 50 28 17 11 55 33 85 49 30 17 122 70 204 117 82 47 150 86
151 86 2 0 36 19 77 43 40 24 93 55 118 69 25 14 109 62 187 106 78 45 146 82
151 82 6 0 12 4 14 8 3 7 27 22 143 87 61 34 255 145 300 172 22 13 48 26 58
30 9 3 17 9 17 14 0 5 9 9 20 9 11 0 20 4 20 9 0 5 12 14 28 20 15 6 41 20 57
30 17 11 46 28 65 39 19 11 52 29 73 41 20 11 52 29 70 39 17 11 75 44 127 74
52 30 117 67 145 82 27 15 112 64 190 109 77 44 151 87 165 94 14 8 48 27 75
44 28 16 58 32 68 35 9 4 17 10 17 15 0 5 9 9 19 9 11 0 21 4 23 8 2 5 39 28
82 53 43 24 91 51 105 59 14 8 58 33 96 55 39 22 79 45 90 52 11 7 27 16 35
20 8 4 80 44 159 90 79 46 146 83 148 83 2 0 27 15 56 33 29 18 66 40 82 48
17 9 86 48 154 87 68 40 127 72 132 72 5 0 9 4 9 10 0 5 3 9 8 8 10 -3 142 75
142 84 0 5 -8 12 -17 15 -10 4 -29 14 -43 24 -14 9 -95 56 -180 104 -85 48
-171 96 -190 108 -19 11 -60 33 -90 50 -30 16 -66 37 -80 46 -14 10 -41 25
-60 35 -38 18 -72 38 -80 46 -3 3 -16 11 -30 17 -14 7 -47 26 -75 42 -27 17
-59 35 -70 41 -11 5 -42 23 -70 39 -27 17 -63 37 -80 45 -16 9 -48 27 -70 41
-22 13 -47 28 -55 32 -8 4 -62 34 -120 68 -58 34 -112 64 -120 68 -8 4 -28 15
-45 25 -16 10 -50 30 -75 44 -74 42 -154 88 -170 98 -8 6 -31 18 -50 28 -19 9
-36 20 -38 25 -2 4 -8 7 -14 7 -6 0 -39 18 -74 40 -35 22 -66 40 -69 40 -4 0
-44 23 -91 50 -47 28 -89 50 -94 50 -6 0 -10 3 -10 8 0 4 -18 16 -40 26 -22
11 -40 24 -40 29 0 6 -3 8 -6 4 -3 -3 -60 26 -127 65 -125 73 -163 94 -232
131 -22 12 -42 25 -45 28 -3 3 -41 25 -85 49 -44 24 -83 48 -87 54 -4 6 -8 8
-8 4 0 -4 -28 10 -63 31 -35 21 -73 42 -85 45 -12 4 -22 11 -22 16 0 5 -10 12
-22 15 -13 4 -38 18 -55 32 -18 13 -33 22 -33 19 0 -3 -34 15 -75 39 -42 25
-80 45 -85 45 -6 0 -10 4 -10 9 0 5 -8 11 -17 15 -19 6 -73 36 -193 106 -41
24 -88 52 -105 60 -56 30 -130 73 -155 89 -14 9 -38 23 -55 31 -16 8 -32 17
-35 20 -5 5 -23 16 -99 58 -25 13 -103 58 -173 98 -69 41 -130 74 -134 74 -4
0 -15 6 -23 14 -9 8 -38 26 -66 41 -27 14 -70 37 -94 51 -24 13 -45 24 -45 23
-1 0 -16 -9 -35 -21z m143 -1317 c56 -32 133 -76 171 -96 39 -21 72 -42 75
-46 3 -4 17 -13 30 -19 26 -11 75 -38 190 -105 36 -21 85 -49 110 -63 25 -13
74 -42 110 -62 36 -21 81 -47 100 -58 19 -11 73 -42 120 -69 47 -27 92 -52
100 -57 8 -4 32 -17 52 -29 20 -12 60 -35 90 -51 29 -15 60 -34 69 -42 8 -8
19 -14 23 -14 12 0 151 -82 154 -92 2 -4 7 -6 12 -3 5 3 14 -1 22 -8 7 -7 29
-21 48 -30 19 -10 53 -29 75 -43 22 -13 54 -32 70 -40 17 -8 39 -21 50 -27 18
-11 76 -44 196 -112 159 -90 259 -150 259 -155 0 -6 -14 -14 -110 -66 -19 -10
-37 -21 -40 -24 -3 -3 -16 -11 -29 -18 -13 -8 -40 -23 -60 -34 -20 -12 -52
-29 -71 -40 -19 -11 -50 -28 -69 -39 -160 -94 -312 -179 -321 -179 -5 0 -10
-4 -10 -10 0 -5 -4 -10 -10 -10 -5 0 -31 -13 -58 -29 -26 -15 -68 -39 -93 -53
-24 -14 -82 -48 -129 -75 -114 -66 -113 -66 -155 -37 -20 13 -38 24 -40 24 -2
0 -42 23 -89 50 -47 28 -89 50 -95 50 -6 0 -11 4 -11 8 0 4 -12 13 -27 19 -16
7 -35 17 -43 22 -41 28 -190 111 -199 111 -5 0 -11 4 -13 9 -1 5 -21 17 -43
28 -22 11 -127 70 -233 132 -106 61 -196 111 -201 111 -5 0 -11 4 -13 8 -3 8
-38 28 -173 101 -27 15 -69 40 -93 55 -24 15 -53 31 -65 37 -12 5 -35 18 -52
28 -16 11 -52 32 -79 46 -81 44 -91 50 -96 56 -3 3 -12 8 -20 12 -8 3 -37 20
-65 37 -27 16 -66 38 -85 47 -19 10 -36 21 -38 26 -2 4 -7 7 -12 7 -4 0 -46
23 -93 50 -47 28 -88 50 -93 50 -4 0 -15 6 -23 14 -15 13 -61 39 -158 91 -31
17 -38 26 -30 34 6 6 16 11 23 11 7 0 14 3 16 8 2 4 21 16 43 28 68 35 219
123 232 134 7 5 19 10 28 10 8 0 15 4 15 8 0 10 50 37 63 34 4 -1 7 2 7 7 0 5
10 13 23 17 12 3 29 12 37 19 8 7 47 30 85 50 39 21 86 48 105 60 19 12 42 25
50 28 8 4 29 15 45 25 17 10 51 30 76 44 83 46 94 53 99 58 3 3 16 11 30 18
14 6 48 25 75 41 28 16 52 29 54 30 2 1 50 -25 105 -58z"/>
<path d="M9539 6366 c-60 -36 -141 -82 -199 -112 -19 -11 -36 -22 -38 -26 -2
-5 -8 -8 -13 -8 -5 0 -38 -18 -74 -40 -36 -22 -69 -40 -73 -40 -4 0 -30 -16
-58 -34 -29 -19 -54 -32 -58 -29 -3 4 -6 1 -6 -5 0 -7 -4 -12 -9 -12 -5 0 -47
-22 -94 -50 -47 -27 -88 -50 -91 -50 -4 0 -12 -5 -19 -10 -13 -11 -164 -99
-232 -134 -22 -12 -42 -24 -45 -27 -3 -3 -20 -12 -37 -20 -18 -8 -33 -17 -33
-21 0 -5 -4 -8 -8 -8 -5 0 -75 -38 -156 -85 -81 -47 -149 -85 -151 -85 -3 0
-29 -16 -59 -35 -30 -19 -57 -35 -60 -35 -3 0 -40 -20 -82 -45 -41 -25 -78
-45 -81 -45 -3 0 -17 -8 -31 -18 -15 -11 -56 -35 -92 -54 -36 -20 -92 -52
-125 -72 -33 -20 -66 -36 -72 -36 -7 0 -13 -3 -13 -8 0 -4 -17 -16 -37 -27
-34 -17 -120 -66 -180 -102 -13 -7 -26 -13 -29 -12 -4 0 -10 -3 -13 -8 -8 -10
-77 -51 -113 -66 -16 -6 -28 -15 -28 -19 0 -4 -4 -8 -9 -8 -4 0 -78 -40 -162
-88 -85 -49 -181 -104 -214 -122 -33 -18 -63 -38 -67 -44 -4 -6 -8 -7 -8 -3 0
4 -17 -4 -37 -18 -21 -14 -41 -25 -46 -25 -4 0 -13 -5 -20 -10 -11 -10 -89
-55 -227 -132 -30 -17 -96 -55 -147 -84 -50 -30 -96 -54 -101 -54 -6 0 -12 -4
-14 -9 -1 -5 -10 -11 -18 -13 -8 -2 -17 -6 -20 -9 -3 -3 -25 -17 -50 -31 -25
-14 -121 -69 -214 -122 -92 -53 -172 -96 -177 -96 -5 0 -9 -4 -9 -10 0 -5 -4
-10 -9 -10 -8 0 -214 -115 -251 -140 -8 -6 -22 -13 -30 -17 -8 -4 -46 -26 -85
-48 -96 -56 -98 -57 -138 -29 -20 13 -39 24 -42 24 -3 0 -30 16 -60 35 -30 19
-55 33 -55 30 0 -3 -24 10 -52 28 -29 19 -60 37 -68 40 -8 4 -28 15 -45 26
-16 10 -48 28 -70 41 -54 30 -145 82 -170 97 -11 7 -36 20 -55 30 -19 10 -36
21 -38 26 -2 4 -7 7 -12 7 -5 0 -43 21 -86 46 -43 25 -87 50 -98 55 -12 6 -46
25 -76 44 -30 19 -77 46 -105 60 -27 14 -63 35 -80 45 -16 11 -37 23 -45 27
-8 4 -37 20 -65 36 -58 35 -106 62 -155 89 -19 11 -53 30 -75 44 -22 13 -47
27 -55 31 -14 6 -145 81 -180 103 -8 6 -33 19 -55 31 -22 12 -113 64 -203 115
-89 52 -167 94 -172 94 -6 0 -10 5 -10 10 0 6 -4 10 -9 10 -4 0 -48 23 -97 51
-49 29 -114 65 -144 82 -30 17 -66 37 -80 47 -14 9 -36 21 -50 28 -14 7 -38
20 -55 30 -16 10 -50 30 -75 44 -25 14 -69 39 -98 57 -29 17 -55 31 -58 31 -3
0 -17 8 -32 19 -40 27 -260 151 -268 151 -4 0 -15 6 -23 14 -9 8 -38 26 -66
41 -55 29 -113 62 -178 100 -23 14 -54 31 -69 37 -16 7 -28 16 -28 20 0 4 -5
8 -11 8 -6 0 -44 20 -85 45 -40 25 -76 45 -79 45 -3 0 -31 16 -61 35 -30 19
-57 35 -59 35 -3 0 -22 11 -43 23 -20 13 -68 41 -107 62 -38 21 -83 47 -100
57 -16 10 -37 21 -45 25 -8 3 -17 9 -20 12 -5 6 -30 20 -110 63 -19 10 -51 28
-70 40 -19 11 -55 32 -80 46 -25 14 -54 31 -65 38 -46 33 -45 52 -45 -624 l0
-638 27 -11 c29 -12 104 -54 113 -63 4 -4 29 -18 115 -64 11 -6 22 -13 25 -16
5 -5 26 -17 105 -59 16 -9 32 -18 35 -21 3 -3 16 -11 30 -18 14 -7 43 -23 65
-37 22 -13 49 -28 60 -33 21 -10 169 -95 195 -112 8 -6 26 -16 40 -22 14 -7
27 -15 30 -18 3 -3 16 -11 30 -18 14 -7 43 -23 65 -36 22 -14 56 -32 75 -42
19 -10 63 -35 97 -56 35 -21 67 -38 73 -38 5 0 10 -4 10 -10 0 -5 4 -10 9 -10
5 0 48 -22 96 -50 48 -27 91 -50 96 -50 5 0 9 -4 9 -8 0 -4 16 -14 35 -21 19
-7 35 -16 35 -21 0 -5 10 -12 23 -16 12 -4 38 -17 57 -29 19 -12 58 -34 85
-49 28 -16 79 -44 115 -64 36 -20 67 -38 70 -41 3 -4 30 -19 60 -35 30 -16 62
-34 70 -41 8 -6 26 -17 40 -23 14 -7 43 -23 65 -36 22 -14 56 -32 75 -42 19
-10 46 -25 60 -35 14 -9 50 -30 80 -46 67 -37 125 -70 165 -94 17 -10 46 -27
65 -37 80 -43 105 -57 110 -63 3 -3 12 -9 20 -13 8 -4 24 -12 35 -19 38 -24
85 -47 91 -46 4 0 10 -3 13 -8 3 -5 53 -36 111 -68 57 -33 114 -66 125 -72 11
-7 32 -18 48 -25 15 -7 27 -16 27 -20 0 -4 5 -8 11 -8 7 0 35 -14 63 -32 28
-17 74 -43 101 -58 28 -15 90 -50 139 -78 49 -29 93 -52 97 -52 5 0 9 -4 9 -8
0 -4 12 -13 28 -19 15 -7 54 -28 87 -48 33 -20 71 -41 85 -48 14 -6 27 -14 30
-17 8 -8 42 -28 80 -46 19 -10 48 -26 63 -37 15 -10 54 -33 87 -51 32 -17 100
-55 152 -85 51 -30 111 -65 133 -77 22 -12 66 -37 99 -55 32 -19 76 -44 98
-56 l39 -22 121 70 c67 38 125 69 129 69 4 0 9 3 11 8 2 4 24 18 51 32 26 13
47 27 47 31 0 3 6 6 13 6 6 0 64 31 127 68 63 37 140 81 170 98 30 17 57 33
60 36 3 4 16 11 30 17 14 7 92 50 174 98 82 47 153 86 158 86 4 0 8 5 8 12 0
6 3 9 6 5 4 -3 26 7 50 23 23 17 53 34 66 40 13 5 41 21 63 35 22 14 47 28 55
32 8 4 38 20 65 36 28 17 75 44 105 60 30 17 69 39 85 49 17 9 55 31 85 48 83
47 123 70 259 148 68 40 125 72 126 72 1 0 54 30 116 67 63 36 139 80 169 96
30 16 60 33 66 38 7 5 31 20 55 33 24 12 141 78 259 146 118 68 240 137 270
153 30 17 67 38 82 49 14 10 31 18 37 18 6 0 11 5 11 10 0 6 9 10 19 10 11 0
21 3 23 8 2 6 268 161 373 218 11 6 85 48 165 94 80 46 170 97 200 113 30 17
66 38 79 49 13 10 28 18 32 18 5 0 38 18 74 40 36 22 70 40 75 40 6 0 10 4 10
8 0 4 12 13 28 19 26 11 62 32 205 115 l67 39 0 639 c0 352 -1 640 -2 640 -2
-1 -28 -16 -59 -34z"/>
<path d="M640 3198 l0 -644 28 -11 c25 -11 79 -41 162 -91 19 -12 51 -30 70
-40 80 -43 105 -57 110 -63 3 -3 12 -9 20 -12 8 -4 29 -15 45 -25 17 -10 55
-32 85 -49 30 -16 161 -91 290 -165 129 -74 262 -150 295 -168 33 -18 67 -38
75 -44 8 -6 37 -22 65 -36 27 -14 56 -31 63 -38 8 -7 28 -19 45 -27 18 -8 50
-26 72 -40 22 -13 49 -29 60 -34 11 -5 55 -30 98 -55 43 -25 82 -46 87 -46 6
0 10 -4 10 -8 0 -4 12 -13 28 -19 29 -13 54 -27 204 -116 53 -31 99 -57 101
-57 3 0 35 -18 71 -40 68 -41 163 -95 203 -114 13 -6 23 -14 23 -18 0 -5 4 -8
9 -8 9 0 165 -86 201 -110 8 -6 29 -17 45 -26 17 -8 44 -23 60 -34 17 -10 46
-27 65 -37 19 -10 63 -34 97 -55 35 -21 67 -38 73 -38 5 0 10 -4 10 -10 0 -5
4 -10 9 -10 6 0 36 -15 68 -34 32 -18 78 -45 103 -58 25 -14 86 -49 135 -78
50 -29 107 -63 129 -74 21 -12 50 -28 65 -36 113 -65 178 -102 191 -110 52
-31 276 -158 330 -188 36 -19 72 -40 80 -46 16 -12 25 -17 106 -61 27 -14 63
-35 79 -46 17 -10 37 -22 45 -26 8 -3 27 -14 41 -24 14 -10 29 -16 33 -12 3 3
6 2 6 -4 0 -6 8 -13 18 -17 9 -3 31 -14 48 -25 17 -10 53 -30 79 -44 l48 -26
46 26 c25 15 63 37 83 50 21 13 40 23 43 23 3 0 30 15 60 34 29 19 56 32 59
29 3 -4 6 -2 6 4 0 6 8 13 18 16 9 4 40 20 67 37 28 17 59 35 70 40 11 6 34
18 50 28 17 11 55 33 85 49 30 17 122 70 204 117 82 47 150 86 151 86 2 0 36
19 77 43 40 24 93 55 118 69 25 14 109 62 187 106 78 45 146 82 151 82 6 0 12
4 14 8 3 7 27 22 143 87 61 34 255 145 300 172 22 13 48 26 58 30 9 3 17 9 17
14 0 5 9 9 20 9 11 0 20 4 20 9 0 5 12 14 28 20 15 6 41 20 57 30 17 11 46 28
65 39 19 11 52 29 73 41 20 11 52 29 70 39 17 11 75 44 127 74 52 30 117 67
145 82 27 15 112 64 190 109 77 44 151 87 165 94 14 8 48 28 75 44 28 17 58
33 68 36 9 3 17 9 17 14 0 5 9 9 19 9 11 0 21 4 23 8 2 5 39 28 82 53 43 24
91 51 105 59 14 8 58 33 96 55 39 22 79 45 90 52 11 7 27 16 35 20 8 4 80 44
159 90 79 46 146 83 148 83 2 0 27 15 56 33 29 18 66 40 82 48 17 9 86 48 154
87 68 40 127 72 132 72 5 0 9 5 9 10 0 6 3 9 8 8 4 -1 40 17 80 40 l72 43 0
640 0 641 -32 -20 c-18 -11 -58 -33 -88 -50 -30 -16 -111 -62 -180 -102 -69
-40 -143 -83 -165 -95 -22 -12 -56 -30 -75 -41 -19 -10 -37 -21 -40 -24 -3 -3
-25 -16 -50 -29 -25 -14 -48 -29 -52 -35 -4 -6 -8 -7 -8 -3 0 4 -17 -4 -37
-18 -21 -14 -41 -25 -46 -25 -4 0 -13 -5 -20 -10 -11 -10 -96 -60 -232 -135
-33 -18 -114 -65 -180 -104 -66 -38 -145 -83 -175 -98 -30 -15 -61 -34 -68
-40 -7 -7 -24 -16 -38 -19 -13 -3 -24 -9 -24 -13 0 -3 -17 -15 -37 -26 -21
-11 -71 -39 -111 -62 -41 -24 -76 -43 -79 -43 -3 0 -17 -8 -31 -18 -25 -17
-74 -45 -172 -98 -19 -11 -36 -22 -38 -26 -2 -5 -7 -8 -11 -8 -4 0 -61 -31
-127 -68 -150 -86 -200 -115 -244 -138 -19 -11 -37 -21 -40 -24 -3 -3 -16 -11
-29 -18 -13 -8 -40 -23 -60 -34 -20 -12 -52 -29 -71 -40 -19 -11 -50 -28 -69
-39 -160 -94 -312 -179 -321 -179 -5 0 -10 -4 -10 -10 0 -5 -4 -10 -10 -10 -5
0 -44 -20 -86 -45 -41 -25 -77 -45 -79 -45 -2 0 -32 -17 -66 -38 -35 -21 -91
-54 -124 -72 -90 -50 -105 -58 -160 -91 -27 -16 -61 -35 -75 -42 -14 -6 -27
-14 -30 -17 -5 -5 -19 -13 -91 -53 -22 -12 -48 -26 -57 -32 -126 -74 -183
-105 -192 -105 -5 0 -10 -4 -10 -10 0 -5 -4 -10 -9 -10 -5 0 -47 -22 -94 -50
-47 -27 -88 -50 -91 -50 -4 0 -12 -5 -19 -10 -13 -11 -164 -99 -232 -134 -22
-12 -41 -24 -43 -28 -2 -5 -10 -8 -18 -8 -8 0 -14 -4 -14 -9 0 -14 -42 -4 -52
11 -4 7 -8 10 -8 5 0 -4 -18 4 -40 18 -22 14 -44 25 -50 25 -5 0 -10 5 -10 10
0 6 -4 10 -10 10 -5 0 -38 17 -72 38 -35 21 -74 43 -88 50 -14 7 -47 26 -75
42 -27 17 -59 35 -70 41 -11 5 -38 20 -60 34 -22 13 -47 27 -55 31 -8 4 -46
26 -85 49 -38 22 -77 44 -85 48 -8 4 -33 18 -55 32 -22 14 -52 30 -67 36 -16
6 -28 15 -28 20 0 5 -3 8 -7 7 -5 -1 -36 14 -71 35 -35 20 -67 37 -73 37 -5 0
-9 3 -9 8 0 4 -18 16 -40 26 -22 11 -40 23 -40 28 0 4 -6 8 -14 8 -8 0 -50 21
-93 46 -43 26 -118 69 -168 97 -49 28 -93 55 -97 61 -4 6 -8 8 -8 3 0 -4 -18
4 -40 18 -22 14 -44 25 -50 25 -5 0 -10 5 -10 10 0 6 -4 10 -10 10 -5 0 -33
14 -62 31 -60 36 -106 63 -158 91 -19 11 -53 30 -75 44 -22 13 -52 29 -67 35
-16 6 -28 16 -28 22 0 6 -2 8 -5 5 -6 -5 -206 109 -232 132 -7 6 -13 9 -13 6
0 -3 -39 17 -86 44 -47 28 -90 50 -95 50 -5 0 -9 4 -9 8 0 5 -28 23 -62 41
-35 17 -90 48 -123 67 -33 19 -68 38 -77 41 -10 3 -18 9 -18 14 0 5 -4 9 -10
9 -5 0 -33 14 -62 31 -62 37 -105 62 -168 97 -41 22 -151 86 -285 164 -27 16
-61 34 -75 41 -14 6 -27 14 -30 17 -6 6 -32 21 -110 63 -30 17 -67 38 -82 49
-14 10 -28 18 -31 18 -3 0 -38 19 -79 43 -40 24 -98 57 -128 74 -30 17 -84 47
-120 68 -124 72 -135 78 -175 98 -22 12 -42 24 -45 27 -3 4 -41 26 -85 50 -44
24 -114 63 -155 88 -41 24 -83 48 -92 53 -17 9 -18 -23 -18 -633z"/>
</g>
</svg>
