<svg xmlns="http://www.w3.org/2000/svg" viewBox="0 0 224 256"><defs><style>.cls-1{fill:#fff;}</style></defs><title>Ресурс 7</title><g id="Слой_2" data-name="Слой 2"><g id="Белый"><polygon class="cls-1" points="112 224 0 160 0 192 112 256 224 192 224 160 112 224"/><polygon class="cls-1" points="112 160 0 96 0 128 112 192 224 128 224 96 112 160"/><path class="cls-1" d="M196,48,112,0,56,32,28,48,0,64,28,80,56,64l56,32L84,112l28,16,28-16,28-16,28-16,28-16ZM140,80,112,64,84,48l28-16,56,32Z"/></g></g></svg>