<svg xmlns="http://www.w3.org/2000/svg" viewBox="0 0 360 176"><defs><style>.cls-1,.cls-2{fill:#fff;}.cls-1{opacity:0.75;}.cls-2{opacity:0.5;}.cls-3{font-size:12px;}.cls-3,.cls-5{font-family:Montserrat-Bold, Montserrat;font-weight:700;}.cls-4{letter-spacing:-0.01em;}.cls-5{font-size:10px;}.cls-6{letter-spacing:0em;}</style></defs><title>Ресурс 1</title><g id="Слой_2" data-name="Слой 2"><g id="Слой_2-2" data-name="Слой 2"><rect class="cls-1" x="186" width="174" height="44" rx="6"/><rect class="cls-1" width="174" height="44" rx="6"/><rect class="cls-2" x="276" y="50" width="84" height="96" rx="6"/><rect class="cls-2" x="186" y="50" width="84" height="66" rx="6"/><rect class="cls-2" y="50" width="84" height="96" rx="6"/><rect class="cls-2" x="90" y="50" width="84" height="126" rx="6"/><rect class="cls-2" x="6" y="86" width="72" height="24" rx="6"/><path class="cls-2" d="M6,50H78a6,6,0,0,1,6,6V80a0,0,0,0,1,0,0H0a0,0,0,0,1,0,0V56A6,6,0,0,1,6,50Z"/><path class="cls-2" d="M96,50h72a6,6,0,0,1,6,6V80a0,0,0,0,1,0,0H90a0,0,0,0,1,0,0V56A6,6,0,0,1,96,50Z"/><path class="cls-2" d="M192,50h72a6,6,0,0,1,6,6V80a0,0,0,0,1,0,0H186a0,0,0,0,1,0,0V56A6,6,0,0,1,192,50Z"/><path class="cls-2" d="M282,50h72a6,6,0,0,1,6,6V80a0,0,0,0,1,0,0H276a0,0,0,0,1,0,0V56A6,6,0,0,1,282,50Z"/><rect class="cls-2" x="96" y="146" width="72" height="24" rx="6"/><rect class="cls-2" x="96" y="86" width="72" height="24" rx="6"/><rect class="cls-2" x="192" y="86" width="72" height="24" rx="6"/><rect class="cls-2" x="282" y="86" width="72" height="24" rx="6"/><rect class="cls-2" x="282" y="116" width="72" height="24" rx="6"/><rect class="cls-2" x="96" y="116" width="72" height="24" rx="6"/><rect class="cls-2" x="6" y="116" width="72" height="24" rx="6"/></g><g id="Слой_3" data-name="Слой 3"><text class="cls-3" transform="translate(32.69 26.9)"><tspan xml:space="preserve"> Нап</tspan><tspan class="cls-4" x="28.67" y="0">р</tspan><tspan x="36.89" y="0">авление #1 </tspan></text><text class="cls-5" transform="translate(13.74 69.42)"><tspan xml:space="preserve"> Прое</tspan><tspan class="cls-6" x="30.86" y="0">к</tspan><tspan x="37.23" y="0">т #1 </tspan></text><text class="cls-5" transform="translate(102.75 69.42)"><tspan xml:space="preserve"> Прое</tspan><tspan class="cls-6" x="30.86" y="0">к</tspan><tspan x="37.23" y="0">т #2 </tspan></text><text class="cls-5" transform="translate(199.74 69.42)"><tspan xml:space="preserve"> Прое</tspan><tspan class="cls-6" x="30.86" y="0">к</tspan><tspan x="37.23" y="0">т #1 </tspan></text><text class="cls-5" transform="translate(288.75 69.42)"><tspan xml:space="preserve"> Прое</tspan><tspan class="cls-6" x="30.86" y="0">к</tspan><tspan x="37.23" y="0">т #2 </tspan></text><text class="cls-3" transform="translate(217.51 26.9)"><tspan xml:space="preserve"> Нап</tspan><tspan class="cls-4" x="28.67" y="0">р</tspan><tspan x="36.89" y="0">авление #2 </tspan></text></g></g></svg>